<svg width="40" height="40" fill="none"
  xmlns="http://www.w3.org/2000/svg">
  <path d="M20 39.445c10.739 0 19.445-8.706 19.445-19.445S30.739.556 20 .556.556 9.26.556 20C.556 30.74 9.26 39.445 20 39.445Z" fill="#fff"/>
  <g fill="#0BB7A0">
    <path d="M20 1.111A18.889 18.889 0 1 1 6.643 6.643 18.765 18.765 0 0 1 20 1.111ZM20 0a20 20 0 1 0 0 40 20 20 0 0 0 0-40Z"/>
    <path d="M36.626 20a.37.37 0 0 1 .37.37 17 17 0 0 1-33.992 0 .37.37 0 0 1 .37-.37h33.252Z"/>
  </g>
  <path fill="#fff" d="M10.803 23.038a.309.309 0 0 0 0 .618v-.618Zm18.395 1.358a.309.309 0 1 0 0-.617v.617Zm-18.395.915a.309.309 0 0 0 0 .617v-.617Zm18.395 1.358a.309.309 0 1 0 0-.617v.617Zm-18.395.915a.309.309 0 1 0 0 .617v-.617Zm18.395 1.358a.309.309 0 0 0 0-.617v.617Zm-18.395-5.286c.863 0 1.28.17 1.724.348.477.191.979.392 1.955.392v-.617c-.864 0-1.281-.17-1.724-.348-.477-.192-.98-.393-1.955-.393v.618Zm3.679.74c.976 0 1.478-.2 1.954-.392.444-.179.861-.348 1.725-.348v-.618c-.976 0-1.478.201-1.955.393-.443.178-.86.348-1.724.348v.617Zm3.679-.74c.863 0 1.28.17 1.724.348.477.191.979.392 1.955.392v-.617c-.864 0-1.281-.17-1.724-.348-.477-.192-.98-.393-1.955-.393v.618Zm3.679.74c.976 0 1.478-.2 1.955-.392.443-.179.86-.348 1.724-.348v-.618c-.976 0-1.478.201-1.955.393-.443.178-.86.348-1.724.348v.617Zm3.679-.74c.863 0 1.28.17 1.724.348.477.191.979.392 1.955.392v-.617c-.864 0-1.281-.17-1.724-.348-.477-.192-.98-.393-1.955-.393v.618Zm-14.716 2.272c.863 0 1.28.17 1.724.348.477.192.979.393 1.955.393v-.617c-.864 0-1.281-.17-1.724-.348-.477-.192-.98-.393-1.955-.393v.617Zm3.679.741c.976 0 1.478-.2 1.954-.393.444-.178.861-.348 1.725-.348v-.617c-.976 0-1.478.2-1.955.393-.443.178-.86.348-1.724.348v.617Zm3.679-.74c.863 0 1.28.169 1.724.347.477.192.979.393 1.955.393v-.617c-.864 0-1.281-.17-1.724-.348-.477-.192-.98-.393-1.955-.393v.617Zm3.679.74c.976 0 1.478-.2 1.955-.393.443-.178.86-.348 1.724-.348v-.617c-.976 0-1.478.2-1.955.393-.443.178-.86.348-1.724.348v.617Zm3.679-.74c.863 0 1.28.169 1.724.347.477.192.979.393 1.955.393v-.617c-.864 0-1.281-.17-1.724-.348-.477-.192-.98-.393-1.955-.393v.617ZM10.803 28.2c.863 0 1.28.17 1.724.348.477.192.979.393 1.955.393v-.617c-.864 0-1.281-.17-1.724-.348-.477-.192-.98-.393-1.955-.393v.617Zm3.679.741c.976 0 1.478-.2 1.954-.393.444-.178.861-.348 1.725-.348v-.617c-.976 0-1.478.2-1.955.393-.443.178-.86.348-1.724.348v.617Zm3.679-.74c.863 0 1.28.169 1.724.347.477.192.979.393 1.955.393v-.617c-.864 0-1.281-.17-1.724-.348-.477-.192-.98-.393-1.955-.393v.617Zm3.679.74c.976 0 1.478-.2 1.955-.393.443-.178.86-.348 1.724-.348v-.617c-.976 0-1.478.2-1.955.393-.443.178-.86.348-1.724.348v.617Zm3.679-.74c.863 0 1.28.169 1.724.347.477.192.979.393 1.955.393v-.617c-.864 0-1.281-.17-1.724-.348-.477-.192-.98-.393-1.955-.393v.617Z"/>
</svg>
