<svg width="40" height="40" fill="none"
  xmlns="http://www.w3.org/2000/svg">
  <path fill="#fff" d="M20 39.444c10.739 0 19.445-8.705 19.445-19.444C39.445 9.261 30.739.556 20 .556S.556 9.26.556 20C.556 30.739 9.26 39.444 20 39.444Z" />
  <g fill="#0BB7A0">
    <path d="M20 1.111A18.889 18.889 0 1 1 6.643 6.643 18.765 18.765 0 0 1 20 1.111ZM20 0a20 20 0 1 0 0 40 20 20 0 0 0 0-40Z" />
    <path d="M26.612 18.496a6.631 6.631 0 0 0-.153-.564 5.172 5.172 0 0 0 2.941-1.468c2.01-2.008 2.037-5.252.06-7.228l-.41-.411-5.439 5.438a7.436 7.436 0 0 0-.502-.288 5.185 5.185 0 0 0 1.038-3.122c0-2.84-2.274-5.154-5.07-5.154h-.58v7.689c-.192.043-.38.093-.565.153a5.172 5.172 0 0 0-1.468-2.941c-2.008-2.01-5.252-2.037-7.228-.06l-.411.41 5.438 5.439a7.459 7.459 0 0 0-.288.502 5.185 5.185 0 0 0-3.122-1.038c-2.84 0-5.154 2.274-5.154 5.07v.58h7.689c.043.19.093.38.153.565a5.202 5.202 0 0 0-4.468 5.092 4.99 4.99 0 0 0 1.466 3.608l.412.411 5.438-5.438c.165.103.332.198.502.287a5.184 5.184 0 0 0-1.038 3.123c0 2.84 2.274 5.154 5.07 5.154h.58v-7.693a6.45 6.45 0 0 0 .561-.153 5.175 5.175 0 0 0 1.472 2.941 5.163 5.163 0 0 0 3.624 1.527h.05a4.99 4.99 0 0 0 3.558-1.466l.411-.412-5.438-5.438c.103-.165.198-.332.287-.502.9.675 1.997 1.04 3.123 1.038 2.84 0 5.154-2.274 5.154-5.07v-.58h-7.693ZM20 25.62A5.62 5.62 0 1 1 25.62 20 5.625 5.625 0 0 1 20 25.62Zm9.018-15.12c1.125 1.532.973 3.728-.44 5.143a4.027 4.027 0 0 1-2.593 1.174 6.787 6.787 0 0 0-1.44-1.852l4.473-4.465ZM19.66 6.906a3.972 3.972 0 0 1 3.325 3.95 4.022 4.022 0 0 1-1 2.662 6.753 6.753 0 0 0-1.984-.3c-.115 0-.228 0-.34.008v-6.32Zm-9.16 4.082c1.532-1.125 3.728-.973 5.143.44a4.027 4.027 0 0 1 1.174 2.593 6.834 6.834 0 0 0-1.852 1.44L10.5 10.989ZM6.906 20.34a3.971 3.971 0 0 1 3.95-3.325 4.022 4.022 0 0 1 2.662 1 6.753 6.753 0 0 0-.292 2.325h-6.32Zm4.082 9.165a3.84 3.84 0 0 1-.741-2.332 4.043 4.043 0 0 1 3.778-3.984 6.83 6.83 0 0 0 1.44 1.845l-4.477 4.471Zm9.359 3.594a3.972 3.972 0 0 1-3.325-3.95 4.022 4.022 0 0 1 1-2.662 6.75 6.75 0 0 0 1.978.295c.115 0 .228 0 .34-.009l.007 6.326Zm9.16-4.074a3.774 3.774 0 0 1-2.333.74 4.046 4.046 0 0 1-3.985-3.777 6.837 6.837 0 0 0 1.846-1.44l4.471 4.477Zm-.354-6.035a4.022 4.022 0 0 1-2.662-1 6.75 6.75 0 0 0 .292-1.99c0-.115 0-.228-.009-.34h6.32a3.972 3.972 0 0 1-3.947 3.324l.006.007Z" />
    <path d="M16.837 20a3.163 3.163 0 1 0 6.325 0 3.163 3.163 0 0 0-6.325 0ZM22 20a2 2 0 1 1-4 0 2 2 0 0 1 4 0Z" />
  </g>
</svg>
